<?xml version="1.0" standalone="no"?><!DOCTYPE svg PUBLIC "-//W3C//DTD SVG 1.1//EN" "http://www.w3.org/Graphics/SVG/1.1/DTD/svg11.dtd"><svg t="1648611875785" class="icon" viewBox="0 0 1087 1024" version="1.1" xmlns="http://www.w3.org/2000/svg" p-id="1219" xmlns:xlink="http://www.w3.org/1999/xlink" width="33.96875" height="32"><defs><style type="text/css">@font-face { font-family: feedback-iconfont; src: url("//at.alicdn.com/t/font_1031158_u69w8yhxdu.woff2?t=1630033759944") format("woff2"), url("//at.alicdn.com/t/font_1031158_u69w8yhxdu.woff?t=1630033759944") format("woff"), url("//at.alicdn.com/t/font_1031158_u69w8yhxdu.ttf?t=1630033759944") format("truetype"); }
</style></defs><path d="M1054.456082 767.472165H894.785979V607.770392a31.754557 31.754557 0 0 0-31.817897-31.839011 31.754557 31.754557 0 0 0-31.828453 31.839011V767.472165H671.511753a31.754557 31.754557 0 0 0-31.828454 31.828454 31.754557 31.754557 0 0 0 31.828454 31.83901h159.648989v159.701773a31.754557 31.754557 0 0 0 31.828454 31.828454 31.754557 31.754557 0 0 0 31.817897-31.828454V831.129072h159.659546a31.754557 31.754557 0 0 0 31.828454-31.83901c0.263918-17.50301-14.061526-31.828454-31.828454-31.828454z" fill="#ffffff" p-id="1220"></path><path d="M977.02268 1.05567h-866.705154C50.133773 1.05567 1.05567 50.14433 1.05567 110.370309v611.475794c0 60.225979 49.067546 109.304082 109.261856 109.304083H543.670103a31.754557 31.754557 0 0 0 31.828454-31.839011A31.754557 31.754557 0 0 0 543.670103 767.472165H110.317526c-25.188289 0-45.341031-20.427216-45.341031-45.636619v-401.365773h957.915051v351.232a31.754557 31.754557 0 0 0 31.828454 31.839011 31.754557 31.754557 0 0 0 31.828454-31.839011V110.359753C1086.548454 50.133773 1037.480907 1.05567 977.012124 1.05567zM64.712577 256.527835V110.359753c0-25.198845 20.41666-45.626062 45.351588-45.626062h866.947959c25.198845 0 45.351588 20.427216 45.351587 45.626062V256.527835H64.712577z" fill="#ffffff" p-id="1221"></path><path d="M543.670103 448.068619a31.754557 31.754557 0 0 0-31.828454-31.839011H192.554227a31.754557 31.754557 0 0 0-31.828454 31.839011 31.754557 31.754557 0 0 0 31.828454 31.828453h319.297979c17.50301 0.263918 31.828454-14.061526 31.828454-31.828453zM192.54367 575.931381a31.754557 31.754557 0 0 0-31.828454 31.839011 31.754557 31.754557 0 0 0 31.828454 31.828453h63.910268a31.754557 31.754557 0 0 0 31.828454-31.828453 31.754557 31.754557 0 0 0-31.828454-31.839011h-63.910268z" fill="#ffffff" p-id="1222"></path></svg>