<?xml version="1.0" standalone="no"?><!DOCTYPE svg PUBLIC "-//W3C//DTD SVG 1.1//EN" "http://www.w3.org/Graphics/SVG/1.1/DTD/svg11.dtd"><svg class="icon" width="48px" height="48.00px" viewBox="0 0 1024 1024" version="1.1" xmlns="http://www.w3.org/2000/svg"><path fill="#ffffff" d="M834.79 153.57H189.21a27.11 27.11 0 0 0-27.08 27.08V826.4a27.11 27.11 0 0 0 27.08 27.08h645.58a27.19 27.19 0 0 0 27.08-27.24V180.65a27.11 27.11 0 0 0-27.08-27.08z m-230.23 52.52v195.45H419.28V206.09zM809.36 801H214.64V206.09h152.13V427a27.11 27.11 0 0 0 27.08 27.08H630A27.11 27.11 0 0 0 657.07 427V206.09h152.29zM485.74 238.25h52.51v138.18h-52.51z" /></svg>