<?xml version="1.0" standalone="no"?><!DOCTYPE svg PUBLIC "-//W3C//DTD SVG 1.1//EN" "http://www.w3.org/Graphics/SVG/1.1/DTD/svg11.dtd"><svg t="1608714249789" class="icon" viewBox="0 0 1024 1024" version="1.1" xmlns="http://www.w3.org/2000/svg" p-id="12019" xmlns:xlink="http://www.w3.org/1999/xlink" width="32" height="32"><defs><style type="text/css"></style></defs><path d="M196.270933 170.666667C170.3936 170.666667 149.3376 191.722667 149.3376 217.6L149.3376 422.421333C149.3376 448.298667 170.3936 469.333333 196.270933 469.333333L401.070933 469.333333C426.948267 469.333333 448.004267 448.298667 448.004267 422.421333L448.004267 217.6C448.004267 191.722667 426.948267 170.666667 401.070933 170.666667L196.270933 170.666667ZM401.070933 512 196.270933 512C146.862933 512 106.670933 471.808 106.670933 422.421333L106.670933 217.6C106.670933 168.192 146.862933 128 196.270933 128L401.070933 128C450.478933 128 490.670933 168.192 490.670933 217.6L490.670933 422.421333C490.670933 471.808 450.478933 512 401.070933 512L401.070933 512Z" p-id="12020" fill="#ffffff"></path><path d="M620.896 170.666667C595.018667 170.666667 573.962667 191.722667 573.962667 217.6L573.962667 422.421333C573.962667 448.298667 595.018667 469.333333 620.896 469.333333L825.717333 469.333333C851.573333 469.333333 872.629333 448.298667 872.629333 422.421333L872.629333 217.6C872.629333 191.722667 851.573333 170.666667 825.717333 170.666667L620.896 170.666667ZM825.717333 512 620.896 512C571.488 512 531.296 471.808 531.296 422.421333L531.296 217.6C531.296 168.192 571.488 128 620.896 128L825.717333 128C875.104 128 915.296 168.192 915.296 217.6L915.296 422.421333C915.296 471.808 875.104 512 825.717333 512L825.717333 512Z" p-id="12021" fill="#ffffff"></path><path d="M196.270933 595.313067C170.3936 595.313067 149.3376 616.369067 149.3376 642.2464L149.3376 847.0464C149.3376 872.923733 170.3936 893.979733 196.270933 893.979733L401.070933 893.979733C426.948267 893.979733 448.004267 872.923733 448.004267 847.0464L448.004267 642.2464C448.004267 616.369067 426.948267 595.313067 401.070933 595.313067L196.270933 595.313067ZM401.070933 936.6464 196.270933 936.6464C146.862933 936.6464 106.670933 896.4544 106.670933 847.0464L106.670933 642.2464C106.670933 592.8384 146.862933 552.6464 196.270933 552.6464L401.070933 552.6464C450.478933 552.6464 490.670933 592.8384 490.670933 642.2464L490.670933 847.0464C490.670933 896.4544 450.478933 936.6464 401.070933 936.6464L401.070933 936.6464Z" p-id="12022" fill="#ffffff"></path><path d="M620.896 595.313067C595.018667 595.313067 573.962667 616.369067 573.962667 642.2464L573.962667 847.0464C573.962667 872.923733 595.018667 893.979733 620.896 893.979733L825.717333 893.979733C851.573333 893.979733 872.629333 872.923733 872.629333 847.0464L872.629333 642.2464C872.629333 616.369067 851.573333 595.313067 825.717333 595.313067L620.896 595.313067ZM825.717333 936.6464 620.896 936.6464C571.488 936.6464 531.296 896.4544 531.296 847.0464L531.296 642.2464C531.296 592.8384 571.488 552.6464 620.896 552.6464L825.717333 552.6464C875.104 552.6464 915.296 592.8384 915.296 642.2464L915.296 847.0464C915.296 896.4544 875.104 936.6464 825.717333 936.6464L825.717333 936.6464Z" p-id="12023" fill="#ffffff"></path></svg>