<?xml version="1.0" standalone="no"?><!DOCTYPE svg PUBLIC "-//W3C//DTD SVG 1.1//EN" "http://www.w3.org/Graphics/SVG/1.1/DTD/svg11.dtd"><svg t="1608714152651" class="icon" viewBox="0 0 1024 1024" version="1.1" xmlns="http://www.w3.org/2000/svg" p-id="11102" xmlns:xlink="http://www.w3.org/1999/xlink" width="32" height="32"><defs><style type="text/css"></style></defs><path d="M553.222554 471.08096l216.80128-216.84224a28.34432 28.34432 0 0 0 0-39.936L768.835994 213.11488a28.34432 28.34432 0 0 0-39.89504 0L512.139674 430.24384 295.297434 213.03296a28.34432 28.34432 0 0 0-39.89504 0L254.173594 214.2208a27.8528 27.8528 0 0 0 0 39.89504L471.056794 471.08096 254.214554 687.96416a28.34432 28.34432 0 0 0 0 39.89504l1.18784 1.2288a28.34432 28.34432 0 0 0 39.89504 0l216.84224-216.8832 216.80128 216.84224a28.34432 28.34432 0 0 0 39.89504 0l1.2288-1.18784a28.34432 28.34432 0 0 0 0-39.89504L553.181594 471.04z" p-id="11103" fill="#ffffff"></path></svg>