<?xml version="1.0" standalone="no"?><!DOCTYPE svg PUBLIC "-//W3C//DTD SVG 1.1//EN" "http://www.w3.org/Graphics/SVG/1.1/DTD/svg11.dtd"><svg t="1658457129676" class="icon" viewBox="0 0 1024 1024" version="1.1" xmlns="http://www.w3.org/2000/svg" p-id="9412" xmlns:xlink="http://www.w3.org/1999/xlink" width="32" height="32"><path d="M513.66440635 950.29367195c-186.41351111 0-337.87448889-151.46097778-337.87448889-337.87448888s151.46097778-337.87448889 337.87448889-337.87448889c186.41351111 0 337.87448889 151.46097778 337.87448889 337.87448889S700.07791746 950.29367195 513.66440635 950.29367195z m0-619.1591619c-154.78979048 0-281.28467302 125.94008043-281.28467302 281.28467302s125.94008043 281.28467302 281.28467302 281.28467301c154.78979048 0 281.28467302-125.94008043 281.28467302-281.28467301S668.45419683 331.13451005 513.66440635 331.13451005z" p-id="9413"></path><path d="M781.63382857 345.55936508c-7.76722963 0-15.53445926-3.3288127-21.08248043-9.43163598-10.54124021-11.65084444-9.43163598-29.40451217 2.21920848-39.94575238l34.95253333-31.62372064v-104.30279788H229.60572275v103.74799577l31.62372063 28.29490793c11.65084444 10.54124021 12.76044868 28.29490794 2.21920848 39.94575239-10.54124021 11.65084444-28.29490794 12.76044868-39.94575239 2.21920846l-41.05535661-36.61693968c-6.10282328-5.54802116-9.43163598-13.31525079-9.43163599-21.08248042V131.96055027c0-15.53445926 12.76044868-28.29490794 28.29490794-28.29490794h624.70718308c15.53445926 0 28.29490794 12.76044868 28.29490793 28.29490794v144.80335238c0 7.76722963-3.3288127 15.53445926-9.43163598 21.08248042l-44.38416931 39.94575238c-4.99321905 4.99321905-11.65084444 7.76722963-18.86327196 7.76722963z" p-id="9414"></path><path d="M409.36160846 252.90741164c-15.53445926 0-28.29490794-12.76044868-28.29490793-28.29490794V131.96055027c0-15.53445926 12.76044868-28.29490794 28.29490793-28.29490794s28.29490794 12.76044868 28.29490794 28.29490794v92.65195343c0 15.53445926-12.76044868 28.29490794-28.29490794 28.29490794z m206.94118943 0c-15.53445926 0-28.29490794-12.76044868-28.29490794-28.29490794V131.96055027c0-15.53445926 12.76044868-28.29490794 28.29490794-28.29490794s28.29490794 12.76044868 28.29490793 28.29490794v92.65195343c0 15.53445926-12.76044868 28.29490794-28.29490793 28.29490794zM622.96042328 800.49710053c-3.88361481 0-8.32203175-1.10960424-12.20564656-3.3288127l-100.97398518-54.92540953-102.63839154 52.15139895c-8.32203175 4.43841693-18.86327195 3.3288127-26.63050159-2.21920847s-11.65084444-15.53445926-9.43163598-24.96609524l21.08248043-113.17963174-81.001109-81.55591112c-6.6576254-6.6576254-8.87683386-16.64406349-6.10282327-26.07569946s11.09604233-15.53445926 20.5276783-16.64406349L439.87572487 514.77401059l52.70620105-102.63839154c4.43841693-8.32203175 13.31525079-13.87005291 22.74688678-13.87005291s18.30846984 5.54802116 22.19208465 14.42485502l49.37738836 103.74799577 113.73443386 18.30846985c9.43163598 1.66440635 17.19886561 8.32203175 19.97287619 17.1988656s0 18.86327195-6.65762539 25.52089735l-83.77511958 79.33670265 17.75366773 113.73443386c1.66440635 9.43163598-2.77401059 18.86327195-10.54124022 24.41129313-4.43841693 3.88361481-9.43163598 5.54802116-14.42485502 5.54802116zM510.33559365 688.98187513c3.88361481 0 8.32203175 1.10960424 12.20564656 3.3288127l67.6858582 37.1717418-12.20564655-76.56269206c-1.10960424-8.32203175 1.66440635-16.64406349 7.76722962-22.19208466l56.03501376-53.26100318-76.56269207-12.20564656c-8.32203175-1.10960424-14.97965714-6.6576254-18.86327195-13.8700529l-33.28812698-69.90506667-34.39773122 68.24066032c-3.88361481 7.21242751-11.09604233 12.20564656-19.41807408 13.31525079l-76.56269207 9.9864381 54.37060742 54.92540952c6.10282328 6.10282328 8.32203175 14.42485503 6.65762539 22.19208465l-14.42485503 76.00788995 68.79546244-34.95253333c4.43841693-1.66440635 8.32203175-2.21920846 12.20564656-2.21920847z" p-id="9415"></path></svg>