<?xml version="1.0" standalone="no"?><!DOCTYPE svg PUBLIC "-//W3C//DTD SVG 1.1//EN" "http://www.w3.org/Graphics/SVG/1.1/DTD/svg11.dtd"><svg t="1658457142000" class="icon" viewBox="0 0 1024 1024" version="1.1" xmlns="http://www.w3.org/2000/svg" p-id="9614" xmlns:xlink="http://www.w3.org/1999/xlink" width="32" height="32"><path d="M725.333333 138.666667a32 32 0 0 1 32 32v53.333333h32a138.666667 138.666667 0 0 1 7.850667 277.12l-7.850667 0.213333h-32V512a245.376 245.376 0 0 1-213.333333 243.242667v108.757333H682.666667a32 32 0 0 1 4.352 63.701333L682.666667 928H341.333333a32 32 0 0 1-4.352-63.701333L341.333333 864h138.666667v-108.714667a245.376 245.376 0 0 1-213.162667-233.856L266.666667 512v-10.666667H234.666667a138.666667 138.666667 0 0 1-7.850667-277.12L234.666667 224h32V170.666667a32 32 0 0 1 27.648-31.701334L298.666667 138.666667z m-32 64h-362.666666V512a181.333333 181.333333 0 0 0 172.544 181.12l8.789333 0.213333A181.333333 181.333333 0 0 0 693.333333 512V202.666667z m-426.666666 234.666666v-149.333333H234.666667a74.666667 74.666667 0 0 0-6.144 149.077333l6.144 0.256h32z m522.666666-149.333333h-32v149.333333h32a74.666667 74.666667 0 0 0 6.144-149.077333L789.333333 288z" p-id="9615"></path></svg>