<?xml version="1.0" standalone="no"?><!DOCTYPE svg PUBLIC "-//W3C//DTD SVG 1.1//EN" "http://www.w3.org/Graphics/SVG/1.1/DTD/svg11.dtd"><svg t="1608714098658" class="icon" viewBox="0 0 1024 1024" version="1.1" xmlns="http://www.w3.org/2000/svg" p-id="8792" xmlns:xlink="http://www.w3.org/1999/xlink" width="32" height="32"><defs><style type="text/css"></style></defs><path d="M128 128a42.666667 42.666667 0 1 0 42.666667 42.666667 42.666667 42.666667 0 0 0-42.666667-42.666667z m0 170.666667a42.666667 42.666667 0 1 0 42.666667 42.666666 42.666667 42.666667 0 0 0-42.666667-42.666666z m682.666667-85.333334a42.666667 42.666667 0 1 0-42.666667-42.666666 42.666667 42.666667 0 0 0 42.666667 42.666666zM298.666667 469.333333a42.666667 42.666667 0 1 0 42.666666 42.666667 42.666667 42.666667 0 0 0-42.666666-42.666667z m0 341.333334a42.666667 42.666667 0 1 0 42.666666 42.666666 42.666667 42.666667 0 0 0-42.666666-42.666666zM298.666667 128a42.666667 42.666667 0 1 0 42.666666 42.666667 42.666667 42.666667 0 0 0-42.666666-42.666667zM128 640a42.666667 42.666667 0 1 0 42.666667 42.666667 42.666667 42.666667 0 0 0-42.666667-42.666667z m0-170.666667a42.666667 42.666667 0 1 0 42.666667 42.666667 42.666667 42.666667 0 0 0-42.666667-42.666667z m0 341.333334a42.666667 42.666667 0 1 0 42.666667 42.666666 42.666667 42.666667 0 0 0-42.666667-42.666666z m682.666667-170.666667a42.666667 42.666667 0 1 0 42.666666 42.666667 42.666667 42.666667 0 0 0-42.666666-42.666667z m0-170.666667a42.666667 42.666667 0 1 0 42.666666 42.666667 42.666667 42.666667 0 0 0-42.666666-42.666667z m0 341.333334a42.666667 42.666667 0 1 0 42.666666 42.666666 42.666667 42.666667 0 0 0-42.666666-42.666666z m0-512a42.666667 42.666667 0 1 0 42.666666 42.666666 42.666667 42.666667 0 0 0-42.666666-42.666666z m-170.666667-170.666667a42.666667 42.666667 0 1 0 42.666667 42.666667 42.666667 42.666667 0 0 0-42.666667-42.666667z m-170.666667 0a42.666667 42.666667 0 0 0-42.666666 42.666667v682.666666a42.666667 42.666667 0 0 0 85.333333 0V170.666667a42.666667 42.666667 0 0 0-42.666667-42.666667z m170.666667 682.666667a42.666667 42.666667 0 1 0 42.666667 42.666666 42.666667 42.666667 0 0 0-42.666667-42.666666z m0-341.333334a42.666667 42.666667 0 1 0 42.666667 42.666667 42.666667 42.666667 0 0 0-42.666667-42.666667z" p-id="8793" fill="#ffffff"></path></svg>