<?xml version="1.0" standalone="no"?><!DOCTYPE svg PUBLIC "-//W3C//DTD SVG 1.1//EN" "http://www.w3.org/Graphics/SVG/1.1/DTD/svg11.dtd"><svg t="1608714124059" class="icon" viewBox="0 0 1024 1024" version="1.1" xmlns="http://www.w3.org/2000/svg" p-id="9954" xmlns:xlink="http://www.w3.org/1999/xlink" width="32" height="32"><defs><style type="text/css"></style></defs><path d="M313.782857 396.8c1.974857-96.658286 70.326857-164.224 190.939429-164.224 112.347429 0 186.605714 62.464 186.605714 152.027429 0 59.318857-28.690286 100.571429-84.077714 133.174857-52.242286 30.262857-66.779429 49.499429-66.779429 88.009143v20.827428h-104.118857l-0.786286-22.802286c-5.101714-61.677714 16.512-97.024 70.710857-128.841142 50.688-30.262857 66.011429-49.499429 66.011429-86.820572 0-37.321143-29.860571-64.438857-74.642286-64.438857-45.165714 0-75.044571 28.672-77.403428 73.069714H313.782857z m176 417.590857c-35.346286 0-64.036571-27.099429-64.036571-61.677714 0-34.56 28.690286-61.677714 64.036571-61.677714 35.748571 0 64.438857 27.099429 64.438857 61.677714 0 34.56-28.690286 61.677714-64.438857 61.677714z" p-id="9955" fill="#ffffff"></path></svg>