<?xml version="1.0" standalone="no"?><!DOCTYPE svg PUBLIC "-//W3C//DTD SVG 1.1//EN" "http://www.w3.org/Graphics/SVG/1.1/DTD/svg11.dtd"><svg t="1608714257530" class="icon" viewBox="0 0 1024 1024" version="1.1" xmlns="http://www.w3.org/2000/svg" p-id="12252" xmlns:xlink="http://www.w3.org/1999/xlink" width="32" height="32"><defs><style type="text/css"></style></defs><path d="M576 170.666667A64 64 0 0 0 512 234.666667 64 64 0 0 0 576 298.666667 64 64 0 0 0 640 234.666667 64 64 0 0 0 576 170.666667m-15.36 203.52c-50.773333 4.266667-189.44 114.773333-189.44 114.773333-8.533333 6.4-5.973333 5.973333 0.853333 17.92 6.826667 11.52 5.973333 12.373333 14.08 6.826667 8.533333-5.546667 22.613333-14.506667 46.08-29.013334 90.453333-58.026667 14.506667 75.946667-24.32 301.653334-15.36 111.786667 85.333333 54.186667 111.36 37.12 25.6-16.64 94.293333-64 101.12-68.693334 9.386667-6.4 2.56-11.52-4.693333-22.186666-5.12-7.253333-10.24-2.133333-10.24-2.133334-27.733333 18.346667-78.506667 56.746667-85.333333 32.426667-8.106667-24.32 43.946667-191.146667 72.533333-305.92 4.693333-27.306667 17.493333-87.04-32-82.773333z" fill="#ffffff" p-id="12253"></path></svg>