<?xml version="1.0" standalone="no"?><!DOCTYPE svg PUBLIC "-//W3C//DTD SVG 1.1//EN" "http://www.w3.org/Graphics/SVG/1.1/DTD/svg11.dtd"><svg t="1608714040682" class="icon" viewBox="0 0 1024 1024" version="1.1" xmlns="http://www.w3.org/2000/svg" p-id="7284" xmlns:xlink="http://www.w3.org/1999/xlink" width="32" height="32"><defs><style type="text/css"></style></defs><path d="M844.16 256H426.666667a21.333333 21.333333 0 0 1 0-42.666667h417.493333a21.333333 21.333333 0 0 1 0 42.666667zM277.333333 256H181.333333a21.333333 21.333333 0 0 1 0-42.666667H277.333333a21.333333 21.333333 0 0 1 0 42.666667zM853.333333 533.333333H607.573333a21.333333 21.333333 0 0 1 0-42.666666H853.333333a21.333333 21.333333 0 0 1 0 42.666666zM426.666667 533.333333H190.506667a21.333333 21.333333 0 0 1 0-42.666666H426.666667a21.333333 21.333333 0 0 1 0 42.666666zM853.333333 810.666667h-64a21.333333 21.333333 0 0 1 0-42.666667h64a21.333333 21.333333 0 0 1 0 42.666667zM640 810.666667H190.506667a21.333333 21.333333 0 0 1 0-42.666667H640a21.333333 21.333333 0 0 1 0 42.666667z" p-id="7285" fill="#ffffff"></path><path d="M426.666667 330.666667h-149.333334a21.333333 21.333333 0 0 1-21.333333-21.333334v-149.333333a21.333333 21.333333 0 0 1 21.333333-21.333333h149.333334a21.333333 21.333333 0 0 1 21.333333 21.333333v149.333333a21.333333 21.333333 0 0 1-21.333333 21.333334z m-128-42.666667h106.666666v-106.666667h-106.666666zM586.666667 608h-149.333334a21.333333 21.333333 0 0 1-21.333333-21.333333v-149.333334a21.333333 21.333333 0 0 1 21.333333-21.333333h149.333334a21.333333 21.333333 0 0 1 21.333333 21.333333v149.333334a21.333333 21.333333 0 0 1-21.333333 21.333333z m-128-42.666667h106.666666v-106.666666h-106.666666zM789.333333 885.333333h-149.333333a21.333333 21.333333 0 0 1-21.333333-21.333333v-149.333333a21.333333 21.333333 0 0 1 21.333333-21.333334h149.333333a21.333333 21.333333 0 0 1 21.333334 21.333334v149.333333a21.333333 21.333333 0 0 1-21.333334 21.333333z m-128-42.666666h106.666667v-106.666667h-106.666667z" p-id="7286" fill="#ffffff"></path></svg>