<?xml version="1.0" standalone="no"?><!DOCTYPE svg PUBLIC "-//W3C//DTD SVG 1.1//EN" "http://www.w3.org/Graphics/SVG/1.1/DTD/svg11.dtd"><svg t="1608714066913" class="icon" viewBox="0 0 1024 1024" version="1.1" xmlns="http://www.w3.org/2000/svg" p-id="7967" xmlns:xlink="http://www.w3.org/1999/xlink" width="32" height="32"><defs><style type="text/css"></style></defs><path d="M464 128a48 48 0 1 0 48 48 48 48 0 0 0-48-48z m432 576H544V444.78c108.42-15.66 192-108 192-220.78a224 224 0 0 0-448 0c0 112.76 83.58 205.12 192 220.78V704h-160v-32a32 32 0 0 0-32-32H224a32 32 0 0 0-32 32v32H128a64 64 0 0 0-64 64v192a64 64 0 0 0 64 64h768a64 64 0 0 0 64-64v-192a64 64 0 0 0-64-64zM352 224a160 160 0 1 1 160 160 160.18 160.18 0 0 1-160-160z m544 736H128v-192h768z" p-id="7968" fill="#ffffff"></path></svg>