<?xml version="1.0" standalone="no"?><!DOCTYPE svg PUBLIC "-//W3C//DTD SVG 1.1//EN" "http://www.w3.org/Graphics/SVG/1.1/DTD/svg11.dtd"><svg t="1623933681527" class="icon" viewBox="0 0 1024 1024" version="1.1" xmlns="http://www.w3.org/2000/svg" p-id="4991" width="200" height="200" xmlns:xlink="http://www.w3.org/1999/xlink"><defs><style type="text/css"></style></defs><path d="M768 832h-128c-35.392 0-64-28.608-64-64V256c0-35.392 28.608-64 64-64h128c35.392 0 64 28.608 64 64v512c0 35.392-28.608 64-64 64z m-384 0h-128c-35.392 0-64-28.608-64-64V256c0-35.392 28.608-64 64-64h128c35.392 0 64 28.608 64 64v512c0 35.392-28.608 64-64 64z" fill="#ffffff" p-id="4992"></path></svg>