<?xml version="1.0" standalone="no"?><!DOCTYPE svg PUBLIC "-//W3C//DTD SVG 1.1//EN" "http://www.w3.org/Graphics/SVG/1.1/DTD/svg11.dtd"><svg class="icon" width="48px" height="48.00px" viewBox="0 0 1024 1024" version="1.1" xmlns="http://www.w3.org/2000/svg"><path fill="#ffffff" d="M225.817154 587.042894C224.529557 576.067275 223.867586 564.90205 223.867586 553.583304 223.867586 435.33932 296.111345 333.849554 399.162631 290.257482L399.162631 290.257482C399.783004 302.0631 402.241308 313.385577 406.258798 323.948138 318.635382 363.793206 257.765518 451.630019 257.765518 553.583304 257.765518 561.519256 258.134323 569.369678 258.855845 577.118591 247.174858 578.747642 236.066965 582.150084 225.817157 587.042942L225.817154 587.042894 225.817154 587.042894 225.817154 587.042894ZM337.6737 781.395458C386.075329 817.968088 446.484078 839.68 512 839.68 577.515922 839.68 637.924671 817.968088 686.3263 781.395458L686.3263 781.395458C676.718456 774.982347 668.156848 767.142885 660.949158 758.182581 619.090279 788.279302 567.631846 806.021568 512 806.021568 456.368154 806.021568 404.909721 788.279302 363.050842 758.182581 355.843152 767.142885 347.281544 774.982347 337.6737 781.395458L337.6737 781.395458 337.6737 781.395458 337.6737 781.395458ZM624.837369 290.257482C727.888655 333.849554 800.132416 435.33932 800.132416 553.583304 800.132416 564.90205 799.470443 576.067275 798.182846 587.042894 787.933035 582.150084 776.825142 578.747642 765.144155 577.118591 765.865677 569.369678 766.234482 561.519256 766.234482 553.583304 766.234482 451.630019 705.364618 363.793206 617.741202 323.948138 621.758692 313.385577 624.216996 302.0631 624.837369 290.257482L624.837369 290.257482 624.837369 290.257482 624.837369 290.257482ZM749.285518 777.97287C799.209011 777.97287 839.68 737.787818 839.68 688.217043 839.68 638.64627 799.209011 598.461218 749.285518 598.461218 699.362023 598.461218 658.891034 638.64627 658.891034 688.217043 658.891034 737.787818 699.362023 777.97287 749.285518 777.97287L749.285518 777.97287 749.285518 777.97287ZM512 374.071652C561.923494 374.071652 602.394482 333.8866 602.394482 284.315826 602.394482 234.745052 561.923494 194.56 512 194.56 462.076506 194.56 421.605518 234.745052 421.605518 284.315826 421.605518 333.8866 462.076506 374.071652 512 374.071652L512 374.071652 512 374.071652ZM274.714482 777.97287C324.637977 777.97287 365.108966 737.787818 365.108966 688.217043 365.108966 638.64627 324.637977 598.461218 274.714482 598.461218 224.790989 598.461218 184.32 638.64627 184.32 688.217043 184.32 737.787818 224.790989 777.97287 274.714482 777.97287L274.714482 777.97287 274.714482 777.97287Z" /></svg>