<?xml version="1.0" standalone="no"?><!DOCTYPE svg PUBLIC "-//W3C//DTD SVG 1.1//EN" "http://www.w3.org/Graphics/SVG/1.1/DTD/svg11.dtd"><svg t="1608714114487" class="icon" viewBox="0 0 1024 1024" version="1.1" xmlns="http://www.w3.org/2000/svg" p-id="9482" xmlns:xlink="http://www.w3.org/1999/xlink" width="32" height="32"><defs><style type="text/css"></style></defs><path d="M440.928315 958.396863c-2.486634 0-4.345981-0.620124-5.585205-1.859347-8.691963-2.486634-11.797697-7.452739-9.311063-14.896268l57.727773-340.763011L232.376465 600.878237c-6.205329 0-10.550287-2.478448-13.037944-7.444553-3.718695-4.965082-3.098571-10.550287 1.867534-16.763802l387.311163-506.48438c4.965082-7.444553 10.550287-8.683776 16.755616-3.718695 6.205329 1.239224 9.311063 6.205329 9.311063 14.896268l-57.726749 340.754824 221.589794 0c6.205329 0 10.550287 2.486634 13.037944 7.452739 1.239224 4.965082 1.239224 10.550287 0 16.755616L453.966259 952.811658C450.240401 956.537516 445.89442 958.396863 440.928315 958.396863zM262.170025 571.0857l238.34541 0c4.965082 0 8.691963 1.867534 11.17041 5.585205 2.486634 2.486634 3.725858 6.212492 3.725858 11.178597l-48.415686 294.205649L770.512728 451.912483 560.101531 451.912483c-4.965082 0-8.691963-1.859347-11.17041-5.585205-2.486634-2.478448-3.725858-6.205329-3.725858-11.17041l50.275034-299.790854L262.170025 571.0857z" p-id="9483" fill="#ffffff"></path></svg>