<?xml version="1.0" standalone="no"?><!DOCTYPE svg PUBLIC "-//W3C//DTD SVG 1.1//EN" "http://www.w3.org/Graphics/SVG/1.1/DTD/svg11.dtd"><svg t="1608714162759" class="icon" viewBox="0 0 1024 1024" version="1.1" xmlns="http://www.w3.org/2000/svg" p-id="11554" xmlns:xlink="http://www.w3.org/1999/xlink" width="32" height="32"><defs><style type="text/css"></style></defs><path d="M637.951 262.077c-23.961 37.949-71.625 62.257-124.388 62.257-53.048 0-100.942-24.572-124.775-62.874L225 319.614v152.03l72.396-25.705c19.528-6.933 40.038 7.549 40.038 28.271v295.14h349.448V473.968c0-20.722 20.51-35.204 40.037-28.27L800 471.643v-152.03l-162.049-57.537zM205.038 542.402C185.51 549.335 165 534.853 165 514.13v-215.7a30 30 0 0 1 19.962-28.271l206.814-73.43a30 30 0 0 1 10.037-1.73h3.5c13.625 0 25.54 9.183 29.01 22.359 6.815 25.875 39.346 46.975 79.24 46.975s72.425-21.1 79.24-46.975C596.275 204.183 608.19 195 621.815 195c4.793 0 8.187 0.585 11.41 1.73l206.814 73.43A30 30 0 0 1 860 298.43v215.7c0 20.723-20.51 35.205-40.038 28.272l-73.08-25.948V799.35c0 16.568-13.432 30-30 30H307.434c-16.568 0-30-13.432-30-30V516.697l-72.396 25.705z" p-id="11555" fill="#ffffff"></path></svg>