<?xml version="1.0" standalone="no"?><!DOCTYPE svg PUBLIC "-//W3C//DTD SVG 1.1//EN" "http://www.w3.org/Graphics/SVG/1.1/DTD/svg11.dtd"><svg t="1608736932985" class="icon" viewBox="0 0 1024 1024" version="1.1" xmlns="http://www.w3.org/2000/svg" p-id="2515" xmlns:xlink="http://www.w3.org/1999/xlink" width="32" height="32"><defs><style type="text/css"></style></defs><path d="M695.04 609.706667L512 793.173333l-183.04-183.466666a42.666667 42.666667 0 0 0-60.586667 60.586666l213.333334 213.333334a42.666667 42.666667 0 0 0 60.586666 0l213.333334-213.333334a42.666667 42.666667 0 0 0-60.586667-60.586666zM328.96 414.293333L512 230.826667l183.04 183.466666a42.666667 42.666667 0 0 0 60.586667 0 42.666667 42.666667 0 0 0 0-60.586666l-213.333334-213.333334a42.666667 42.666667 0 0 0-60.586666 0l-213.333334 213.333334a42.666667 42.666667 0 0 0 60.586667 60.586666z" p-id="2516"></path></svg>