<?xml version="1.0" standalone="no"?><!DOCTYPE svg PUBLIC "-//W3C//DTD SVG 1.1//EN" "http://www.w3.org/Graphics/SVG/1.1/DTD/svg11.dtd"><svg t="1608714050390" class="icon" viewBox="0 0 1024 1024" version="1.1" xmlns="http://www.w3.org/2000/svg" p-id="7511" xmlns:xlink="http://www.w3.org/1999/xlink" width="32" height="32"><defs><style type="text/css"></style></defs><path d="M597.333333 292.571429v458.093714a109.714286 109.714286 0 0 1-170.569143 91.282286l-135.875047-90.575239a134.095238 134.095238 0 0 0-74.361905-22.528H207.238095a97.52381 97.52381 0 0 1-97.523809-97.523809v-219.428571a97.52381 97.52381 0 0 1 97.523809-97.52381h9.264762a134.095238 134.095238 0 0 0 74.386286-22.503619l135.875047-90.575238A109.714286 109.714286 0 0 1 597.333333 292.571429z m103.862857 413.988571a36.571429 36.571429 0 1 1-58.806857-43.495619 231.814095 231.814095 0 0 0-0.438857-275.504762 36.571429 36.571429 0 1 1 58.660572-43.690667 304.956952 304.956952 0 0 1 0.609523 362.691048z m132.632381 70.802286a36.571429 36.571429 0 1 1-59.050666-43.154286c96.402286-131.925333 96.572952-312.393143 0.487619-444.513524a36.571429 36.571429 0 1 1 59.123809-43.008c114.809905 157.817905 114.590476 373.101714-0.560762 530.67581z" p-id="7512" fill="#ffffff"></path></svg>