<?xml version="1.0" standalone="no"?><!DOCTYPE svg PUBLIC "-//W3C//DTD SVG 1.1//EN" "http://www.w3.org/Graphics/SVG/1.1/DTD/svg11.dtd"><svg t="1608714060580" class="icon" viewBox="0 0 1024 1024" version="1.1" xmlns="http://www.w3.org/2000/svg" p-id="7737" xmlns:xlink="http://www.w3.org/1999/xlink" width="32" height="32"><defs><style type="text/css"></style></defs><path d="M750.592 525.312c0 98.304-11.264 194.56-34.816 285.696-2.048 7.168-5.12 13.312-9.216 18.432-8.192 11.264-20.48 17.408-33.792 19.456h-6.144c-11.264 0-22.528-4.096-30.72-10.24L479.232 717.824c-2.048-1.024-4.096-2.048-6.144-2.048h-112.64c-18.432 0-34.816-10.24-44.032-25.6C289.792 645.12 276.48 588.8 276.48 525.312c0-64.512 13.312-123.904 39.936-177.152 8.192-17.408 26.624-28.672 46.08-28.672h111.616c2.048 0 4.096-1.024 6.144-2.048L634.88 196.608c6.144-4.096 12.288-7.168 19.456-9.216 13.312-3.072 26.624-1.024 38.912 6.144 11.264 7.168 19.456 18.432 22.528 31.744 23.552 99.328 34.816 200.704 34.816 300.032z" p-id="7738" fill="#ffffff"></path></svg>