<?xml version="1.0" standalone="no"?><!DOCTYPE svg PUBLIC "-//W3C//DTD SVG 1.1//EN" "http://www.w3.org/Graphics/SVG/1.1/DTD/svg11.dtd"><svg t="1608717501312" class="icon" viewBox="0 0 1024 1024" version="1.1" xmlns="http://www.w3.org/2000/svg" p-id="12712" xmlns:xlink="http://www.w3.org/1999/xlink" width="32" height="32"><defs><style type="text/css"></style></defs><path d="M737.926465 433.351111c0-124.987475-101.313939-226.288485-226.301414-226.288485s-226.301414 101.313939-226.301415 226.288485C202.007273 433.351111 134.464646 500.893737 134.464646 584.22303s67.542626 150.871919 150.87192 150.871919h75.429495v-60.34101h-75.429495c-49.907071 0-90.51798-40.610909-90.51798-90.517979 0-49.92 40.610909-90.51798 90.51798-90.51798h60.34101v-60.34101c0-91.513535 74.446869-165.960404 165.947475-165.960404s165.947475 74.446869 165.947474 165.960404v60.34101h60.34101c49.92 0 90.51798 40.59798 90.51798 90.51798 0 49.92-40.59798 90.51798-90.51798 90.517979H662.49697v60.34101h75.429495c83.303434 0 150.85899-67.542626 150.85899-150.871919s-67.542626-150.871919-150.85899-150.871919z m0 0" p-id="12713" fill="#ffffff"></path><path d="M511.133737 436.712727L348.134141 612.059798l47.476364 44.205253 81.609697-87.828687v247.893333h67.891717V568.462222l81.622626 87.789899 47.463435-44.205252-163.064243-175.334142z m0 0" p-id="12714" fill="#ffffff"></path></svg>